# xmcd
#
# Track frame offsets:
#	150
#	14285
#	29063
#	40166
#	55770
#	68668
#	81501
#	97025
#	110338
#	124407
#
# Disc length: 1906 seconds
#
# Revision: 1
# Processed by: cddbd v1.5.1PL0 Copyright (c) Steve Scherf et al.
# Submitted via: audiograbber 1.83.01
#
DISCID=8707700a
DTITLE=The Forester Sisters - The Forester Sisters
DYEAR=1985
DGENRE=Country
TTITLE0=(That's What You Do) When You're In Love
TTITLE1=I Fell In Love Again Last Night
TTITLE2=Just In Case
TTITLE3=Reckless Night
TTITLE4=Dixie Man
TTITLE5=Mama's Never Seen Those Eyes
TTITLE6=The Missing Part
TTITLE7=Something Tells Me
TTITLE8=Crazy Heart
TTITLE9=Yankees Don't Go Home
EXTD=
EXTT0=
EXTT1=
EXTT2=
EXTT3=
EXTT4=
EXTT5=
EXTT6=
EXTT7=
EXTT8=
EXTT9=
PLAYORDER=
